<?xml version="1.0" encoding="UTF-8" standalone="no"?>
<svg width="158px" height="30px" viewBox="0 0 158 30" version="1.1" xmlns="http://www.w3.org/2000/svg" xmlns:xlink="http://www.w3.org/1999/xlink">
    <!-- Generator: Sketch 3.8.3 (29802) - http://www.bohemiancoding.com/sketch -->
    <title>7iconPayCards</title>
    <desc>Created with Sketch.</desc>
    <defs></defs>
    <g id="Page-1" stroke="none" stroke-width="1" fill="none" fill-rule="evenodd">
        <g id="LP-3DPEN-3DLION-NEEW---Горячие-2" transform="translate(-586.000000, -5872.000000)">
            <g id="7-Как-оформить,-доставка-оплата" transform="translate(195.000000, 4895.000000)">
                <g id="Оплата" transform="translate(25.000000, 800.000000)">
                    <g id="Оплата-Картой" transform="translate(328.000000, 95.000000)">
                        <g id="7iconPayCards" transform="translate(38.000000, 82.000000)">
                            <g id="maestro" transform="translate(112.528320, 0.593188)">
                                <g id="Layer_1">
                                    <g id="Group">
                                        <path d="M28.3145726,14.2731552 C28.3145726,22.0960154 21.9773507,28.4346351 14.1572863,28.4346351 C6.33722189,28.4346351 0,22.0946175 0,14.2731552 C0,6.45169292 6.33877509,0.111675266 14.1572863,0.111675266 C21.9757975,0.111675266 28.3145726,6.45169292 28.3145726,14.2731552 L28.3145726,14.2731552 Z" id="Shape" fill="#26A6D1"></path>
                                        <path d="M31.1597291,0.111675266 C27.9846723,0.111675266 25.0617004,1.16956155 22.6995899,2.93555289 L22.7109283,2.93695078 C23.1754912,3.38582633 23.688048,3.70174773 24.0831828,4.21849823 L21.137534,4.26524963 C20.6759222,4.73121041 20.255315,5.23817573 19.8587824,5.76502205 L25.0531578,5.76502205 C25.4482925,6.23937012 25.8136058,6.65159009 26.1450592,7.17548532 L18.9170756,7.17548532 C18.6522546,7.63150561 18.4073145,8.10026215 18.1934385,8.58734648 L26.9679459,8.58734648 C27.197354,9.07303293 27.4026873,9.43989938 27.5769567,9.95400944 L17.673737,9.95400944 C17.5165528,10.442647 17.3820455,10.9424676 17.2800001,11.4522287 L27.9918171,11.4522287 C28.0966582,11.9422641 28.1772695,12.3953333 28.2325635,12.8571004 L17.067522,12.8571004 C17.0207706,13.3230612 16.9966959,13.7960114 16.9966959,14.2733105 L28.3131747,14.2733105 C28.3131747,14.7746843 28.2777617,15.2390919 28.2268166,15.6895206 L17.067522,15.6895206 C17.1156713,16.1696156 17.1864973,16.6411679 17.2800001,17.1057308 L27.9747318,17.1057308 C27.8642991,17.5645468 27.7367812,18.0261586 27.5768013,18.5048557 L17.6411197,18.5048557 C17.7911591,18.9891442 17.973971,19.4592986 18.1735575,19.9181147 L26.9679459,19.9181147 C26.7244038,20.4336226 26.4482443,20.8456873 26.1438166,21.328578 L18.8917584,21.328578 C19.1778583,21.8242049 19.4936244,22.2971551 19.8362609,22.7503796 L25.0533131,22.8281951 C24.6086312,23.3620308 24.0379846,23.6835437 23.5181277,24.1509024 C23.5463959,24.1735791 22.6868536,24.1481066 20.9944841,24.1212362 C23.5690727,26.7779893 27.1675325,28.4347905 31.1595738,28.4347905 C38.981036,28.4347905 45.3210537,22.0946175 45.3210537,14.2733105 C45.3210537,6.45200356 38.9824339,0.111675266 31.1597291,0.111675266 L31.1597291,0.111675266 Z" id="Shape" fill="#E2574C"></path>
                                    </g>
                                </g>
                            </g>
                            <g id="mastercard" transform="translate(56.528320, 0.593188)">
                                <g id="Layer_1">
                                    <g id="Group">
                                        <path d="M28.3145726,14.2731552 C28.3145726,22.0960154 21.9773507,28.4346351 14.1572863,28.4346351 C6.33722189,28.4346351 0,22.0946175 0,14.2731552 C0,6.45169292 6.33877509,0.111675266 14.1572863,0.111675266 C21.9757975,0.111675266 28.3145726,6.45169292 28.3145726,14.2731552 L28.3145726,14.2731552 Z" id="Shape" fill="#E2574C"></path>
                                        <path d="M31.1597291,0.111675266 C27.9846723,0.111675266 25.0617004,1.16956155 22.6995899,2.93555289 L22.7109283,2.93695078 C23.1754912,3.38582633 23.688048,3.70174773 24.0831828,4.21849823 L21.137534,4.26524963 C20.6759222,4.73121041 20.255315,5.23817573 19.8587824,5.76502205 L25.0531578,5.76502205 C25.4482925,6.23937012 25.8136058,6.65159009 26.1450592,7.17548532 L18.9170756,7.17548532 C18.6522546,7.63150561 18.4073145,8.10026215 18.1934385,8.58734648 L26.9679459,8.58734648 C27.197354,9.07303293 27.4026873,9.43989938 27.5769567,9.95400944 L17.673737,9.95400944 C17.5165528,10.442647 17.3820455,10.9424676 17.2800001,11.4522287 L27.9918171,11.4522287 C28.0966582,11.9422641 28.1772695,12.3953333 28.2325635,12.8571004 L17.067522,12.8571004 C17.0207706,13.3230612 16.9966959,13.7960114 16.9966959,14.2733105 L28.3131747,14.2733105 C28.3131747,14.7746843 28.2777617,15.2390919 28.2268166,15.6895206 L17.067522,15.6895206 C17.1156713,16.1696156 17.1864973,16.6411679 17.2800001,17.1057308 L27.9747318,17.1057308 C27.8642991,17.5645468 27.7367812,18.0261586 27.5768013,18.5048557 L17.6411197,18.5048557 C17.7911591,18.9891442 17.973971,19.4592986 18.1735575,19.9181147 L26.9679459,19.9181147 C26.7244038,20.4336226 26.4482443,20.8456873 26.1438166,21.328578 L18.8917584,21.328578 C19.1778583,21.8242049 19.4936244,22.2971551 19.8362609,22.7503796 L25.0533131,22.8281951 C24.6086312,23.3620308 24.0379846,23.6835437 23.5181277,24.1509024 C23.5463959,24.1735791 22.6868536,24.1481066 20.9944841,24.1212362 C23.5690727,26.7779893 27.1675325,28.4347905 31.1595738,28.4347905 C38.981036,28.4347905 45.3210537,22.0946175 45.3210537,14.2733105 C45.3210537,6.45200356 38.9824339,0.111675266 31.1597291,0.111675266 L31.1597291,0.111675266 Z" id="Shape" fill="#F4B459"></path>
                                    </g>
                                </g>
                            </g>
                            <g id="visa" transform="translate(0.528320, 7.790708)">
                                <path d="M18.5233388,0.0357236596 L16.2489842,14.1888163 L19.8842549,14.1888163 L22.1572115,0.0357236596 L18.5233388,0.0357236596 L18.5233388,0.0357236596 Z M29.4886384,5.80090103 C28.218274,5.17356251 27.4394982,4.75015948 27.4394982,4.10853149 C27.4550303,3.5251486 28.0980561,2.92747624 29.5339919,2.92747624 C30.7150472,2.89781007 31.5831321,3.17536737 32.24169,3.4515268 L32.5715902,3.5987704 L33.0658193,0.637589663 C32.3477737,0.36003236 31.2092762,0.0542067704 29.8030066,0.0542067704 C26.2130895,0.0542067704 23.6852523,1.92069032 23.6695649,4.59017961 C23.6398987,6.56010646 25.4793566,7.65325044 26.85596,8.30901257 C28.2622296,8.98170462 28.7409267,9.4178439 28.7409267,10.0155163 C28.7253947,10.9331484 27.6038271,11.3565514 26.5572792,11.3565514 C25.1072092,11.3565514 24.3282781,11.1384817 23.145825,10.6271674 L22.667128,10.4090978 L22.1587647,13.4864581 C23.0127155,13.8660608 24.5831587,14.2001547 26.2132448,14.2172399 C30.0283763,14.2172399 32.51086,12.3790246 32.5420794,9.53402346 C32.554505,7.9733655 31.58453,6.77802078 29.4886384,5.80090103 L29.4886384,5.80090103 Z M42.3855008,0.0795239726 L39.5729615,0.0795239726 C38.7062745,0.0795239726 38.0477166,0.328812988 37.6724629,1.21817679 L32.2725987,14.1888163 L36.0877303,14.1888163 L37.1384718,11.380626 L41.4068278,11.380626 L41.952002,14.2001547 L45.31686,14.2001547 L42.3855008,0.0795239726 L42.3855008,0.0795239726 Z M38.1965134,8.54665257 C38.2701352,8.5537973 39.6608728,3.96253045 39.6608728,3.96253045 L40.7683063,8.54665257 L38.1965134,8.54665257 L38.1965134,8.54665257 Z M13.2113859,0.0357236596 L9.64973705,9.65144557 L9.26174704,7.75514053 C8.60318915,5.56714404 6.53851694,3.18950152 4.2343409,2.00844627 L7.4957557,14.1746822 L11.3421066,14.1746822 L17.0577368,0.0372768622 L13.2113859,0.0372768622 L13.2113859,0.0357236596 L13.2113859,0.0357236596 Z" id="Shape" fill="#2394BC"></path>
                                <path d="M8.06360657,1.86104734 C7.78604926,0.781882184 6.90087911,0.0540514501 5.6987003,0.0385194242 L0.0580897769,0.0385194242 L0,0.300389381 C4.40006762,1.38514607 8.09327274,4.72297844 9.29141321,7.86262215 L8.06360657,1.86104734 L8.06360657,1.86104734 Z" id="Shape" fill="#EFC75E"></path>
                            </g>
                        </g>
                    </g>
                </g>
            </g>
        </g>
    </g>
</svg>