<?xml version="1.0" encoding="UTF-8" standalone="no"?>
<svg width="56px" height="49px" viewBox="0 0 56 49" version="1.1" xmlns="http://www.w3.org/2000/svg" xmlns:xlink="http://www.w3.org/1999/xlink">
    <!-- Generator: Sketch 3.8.3 (29802) - http://www.bohemiancoding.com/sketch -->
    <title>7icon-3</title>
    <desc>Created with Sketch.</desc>
    <defs></defs>
    <g id="Page-1" stroke="none" stroke-width="1" fill="none" fill-rule="evenodd">
        <g id="LP-3DPEN-3DLION-NEEW---Горячие-2" transform="translate(-465.000000, -5447.000000)" fill="#FCD705">
            <g id="7-Как-оформить,-доставка-оплата" transform="translate(195.000000, 4895.000000)">
                <g id="Доставка" transform="translate(25.000000, 438.000000)">
                    <g id="Доставка-Москва" transform="translate(0.000000, 96.000000)">
                        <path d="M300.851125,59.8206612 L298.102658,28.592562 C298.045399,27.9330579 297.495706,27.4355372 296.842945,27.4355372 L291.139877,27.4355372 C291.09407,22.2289256 286.891207,18.0173554 281.737832,18.0173554 C276.584458,18.0173554 272.381595,22.2289256 272.335787,27.4355372 L266.63272,27.4355372 C265.979959,27.4355372 265.430266,27.9446281 265.373006,28.592562 L262.62454,59.8206612 L262.62454,59.9363636 C262.62454,63.453719 265.819632,66.3231405 269.7591,66.3231405 L293.728016,66.3231405 C297.656033,66.3231405 300.862577,63.4652893 300.862577,59.9363636 C300.862577,59.8900826 300.862577,59.8553719 300.851125,59.8206612 L300.851125,59.8206612 Z M281.749284,20.5628099 C285.516973,20.5628099 288.586094,23.6404959 288.631902,27.4355372 L274.855215,27.4355372 C274.901022,23.6404959 277.970143,20.5628099 281.749284,20.5628099 L281.749284,20.5628099 Z M293.728016,63.7661157 L269.7591,63.7661157 C267.239673,63.7661157 265.178323,62.0768595 265.143967,59.9826446 L267.777914,29.9809917 L272.324335,29.9809917 L272.324335,34.1 C272.324335,34.8057851 272.885481,35.3727273 273.584049,35.3727273 C274.282618,35.3727273 274.843763,34.8057851 274.843763,34.1 L274.843763,29.9809917 L288.62045,29.9809917 L288.62045,34.1 C288.62045,34.8057851 289.181595,35.3727273 289.880164,35.3727273 C290.578732,35.3727273 291.139877,34.8057851 291.139877,34.1 L291.139877,29.9809917 L295.686299,29.9809917 L298.320245,59.9826446 C298.308793,62.0768595 296.247444,63.7661157 293.728016,63.7661157 Z M259.692843,38.4041322 L251.058078,38.4041322 C250.359509,38.4041322 249.798364,38.9710744 249.798364,39.6768595 C249.798364,40.3826446 250.359509,40.9495868 251.058078,40.9495868 L259.692843,40.9495868 C260.391411,40.9495868 260.952556,40.3826446 260.952556,39.6768595 C260.952556,38.9710744 260.391411,38.4041322 259.692843,38.4041322 Z M259.692843,44.6057851 L246.259714,44.6057851 C245.561145,44.6057851 245,45.1727273 245,45.8785124 C245,46.5842975 245.561145,47.1512397 246.259714,47.1512397 L259.692843,47.1512397 C260.391411,47.1512397 260.952556,46.5842975 260.952556,45.8785124 C260.952556,45.1727273 260.391411,44.6057851 259.692843,44.6057851 Z M259.692843,50.807438 L251.058078,50.807438 C250.359509,50.807438 249.798364,51.3743802 249.798364,52.0801653 C249.798364,52.7859504 250.359509,53.3528926 251.058078,53.3528926 L259.692843,53.3528926 C260.391411,53.3528926 260.952556,52.7859504 260.952556,52.0801653 C260.952556,51.3743802 260.391411,50.807438 259.692843,50.807438 Z" id="7icon-3"></path>
                    </g>
                </g>
            </g>
        </g>
    </g>
</svg>