<?xml version="1.0" encoding="UTF-8" standalone="no"?>
<svg width="68px" height="35px" viewBox="0 0 68 35" version="1.1" xmlns="http://www.w3.org/2000/svg" xmlns:xlink="http://www.w3.org/1999/xlink">
    <!-- Generator: Sketch 3.8.3 (29802) - http://www.bohemiancoding.com/sketch -->
    <title>7icon-4</title>
    <desc>Created with Sketch.</desc>
    <defs>
        <path d="M301.705557,39.9283212 L294.823231,29.8939626 C294.502495,29.426538 293.966652,29.1465737 293.393635,29.1465737 L287.440875,29.1465737 C287.23574,26.2758247 284.801098,24 281.830158,24 L255.704384,24 C252.599484,24 250.07304,26.4846835 250.07304,29.5377659 L250.07304,29.7582155 L234,29.7582155 L234,33.1501083 L250.072813,33.1501083 L250.072813,35.9479684 L239.426209,35.9479684 L239.426209,39.3398612 L250.072813,39.3398612 L250.072813,42.1377213 L245.503183,42.1377213 L245.503183,45.5296141 L250.072813,45.5296141 L250.072813,46.4528722 C250.072813,49.4410903 252.494763,51.8787416 255.50877,51.9806076 C255.506956,52.0427971 255.499023,52.1043179 255.499023,52.1665075 C255.499023,55.9344351 258.616617,59 262.447989,59 C266.280041,59 269.398089,55.9342122 269.398089,52.1665075 C269.398089,52.1076614 269.390608,52.0494841 269.388795,51.9901923 L278.795524,51.9901923 C278.793711,52.0490383 278.786231,52.1072156 278.786231,52.1665075 C278.786231,55.9344351 281.903825,59 285.735197,59 C289.567249,59 292.685297,55.9342122 292.685297,52.1665075 C292.685297,52.1076614 292.677817,52.0494841 292.676003,51.9901923 L300.27528,51.9901923 C301.22774,51.9901923 301.999999,51.230321 301.999999,50.2941345 L301.999999,40.8765444 C302.000452,40.5388486 301.897544,40.2082856 301.705557,39.9283212 L301.705557,39.9283212 Z M262.448669,55.6081072 C260.518816,55.6081072 258.948912,54.0642912 258.948912,52.1665075 C258.948912,50.268055 260.518816,48.7237931 262.448669,48.7237931 C264.379202,48.7237931 265.949559,50.2676092 265.949559,52.1665075 C265.949559,54.0642912 264.379655,55.6081072 262.448669,55.6081072 L262.448669,55.6081072 Z M279.820064,48.5985225 L268.365162,48.5985225 L268.365162,48.5987454 C267.1407,46.6432302 264.950406,45.3323462 262.448669,45.3323462 C259.947386,45.3323462 257.757091,46.6432302 256.53263,48.5987454 L255.704158,48.5987454 C254.501003,48.5987454 253.522023,47.6360336 253.522023,46.4528722 L253.522023,29.5377659 C253.522023,28.3546045 254.501003,27.3918928 255.704158,27.3918928 L281.829251,27.3918928 C283.032406,27.3918928 284.010932,28.3546045 284.010932,29.5377659 L284.010932,45.5532416 C282.245414,45.9992676 280.751897,47.1090944 279.820064,48.5985225 L279.820064,48.5985225 Z M285.73565,55.6081072 C283.806478,55.6081072 282.235894,54.0642912 282.235894,52.1665075 C282.235894,50.268055 283.805798,48.7237931 285.73565,48.7237931 C287.666183,48.7237931 289.23654,50.2676092 289.23654,52.1665075 C289.23654,54.0642912 287.665957,55.6081072 285.73565,55.6081072 L285.73565,55.6081072 Z M298.551242,48.5987454 L291.652143,48.5987454 C290.730057,47.1260349 289.260114,46.0242326 287.519982,45.5692905 L287.519982,32.5386893 L292.476535,32.5386893 L298.551242,41.3954592 L298.551242,48.5987454 L298.551242,48.5987454 Z" id="path-1"></path>
        <mask id="mask-2" maskContentUnits="userSpaceOnUse" maskUnits="objectBoundingBox" x="0" y="0" width="68" height="35" fill="white">
            <use xlink:href="#path-1"></use>
        </mask>
    </defs>
    <g id="Page-1" stroke="none" stroke-width="1" fill="none" fill-rule="evenodd">
        <g id="LP-3DPEN-3DLION-NEEW---Горячие-2" transform="translate(-811.000000, -5453.000000)" stroke="#FFFFFF" stroke-width="0.8" fill="#FCD705">
            <g id="7-Как-оформить,-доставка-оплата" transform="translate(195.000000, 4895.000000)">
                <g id="Доставка" transform="translate(25.000000, 438.000000)">
                    <g id="Доставка-по-РФ" transform="translate(357.000000, 96.000000)">
                        <use id="7icon-4" mask="url(#mask-2)" xlink:href="#path-1"></use>
                    </g>
                </g>
            </g>
        </g>
    </g>
</svg>