<?xml version="1.0" encoding="UTF-8" standalone="no"?>
<svg width="239px" height="33px" viewBox="0 0 239 33" version="1.1" xmlns="http://www.w3.org/2000/svg" xmlns:xlink="http://www.w3.org/1999/xlink">
    <!-- Generator: Sketch 3.8.3 (29802) - http://www.bohemiancoding.com/sketch -->
    <title>7iconPayOnline</title>
    <desc>Created with Sketch.</desc>
    <defs></defs>
    <g id="Page-1" stroke="none" stroke-width="1" fill="none" fill-rule="evenodd">
        <g id="LP-3DPEN-3DLION-NEEW---Горячие-2" transform="translate(-911.000000, -5872.000000)">
            <g id="7-Как-оформить,-доставка-оплата" transform="translate(195.000000, 4895.000000)">
                <g id="Оплата" transform="translate(25.000000, 800.000000)">
                    <g id="Оплата-Онлайн" transform="translate(656.000000, 95.000000)">
                        <g id="7iconPayOnline" transform="translate(35.000000, 82.000000)">
                            <path d="M185.520471,6.1013151 L183.313095,13.3686947 L187.762738,13.3686947 L185.547859,6.1013151 L185.520471,6.1013151 Z M177.785183,25.4523977 C177.648242,25.4523977 177.537751,25.5764524 177.537751,25.730132 L177.537751,28.8205942 C177.537751,28.9746853 177.648242,29.0981227 177.785183,29.0981227 L193.282209,29.0981227 C193.418024,29.0981227 193.527577,28.9746853 193.527577,28.8205942 L193.527577,25.730132 C193.527577,25.5764524 193.418024,25.4523977 193.282209,25.4523977 L177.785183,25.4523977 L177.785183,25.4523977 Z M185.533602,1.78100451 C187.229607,1.78100451 187.762738,3.113306 188.208265,4.44684187 C188.397356,5.01074527 192.80254,18.2403592 192.934229,18.6374164 C192.971184,18.7466585 192.946797,18.9295516 192.791285,18.9947678 C192.63521,19.0597782 190.345857,20.0361683 190.219609,20.0882178 C190.092986,20.140473 189.950417,20.0633246 189.903894,19.9252804 C189.856997,19.7880591 188.908353,16.9045604 188.801051,16.58136 L182.27422,16.58136 C182.166918,16.9045604 181.208332,19.793408 181.16406,19.9252804 C181.120164,20.0573584 180.983036,20.1464391 180.849284,20.0882178 C180.714969,20.029585 178.415487,19.0525776 178.279484,18.9947678 C178.147983,18.9398381 178.087579,18.775872 178.134289,18.6374164 C178.296367,18.1405806 182.634206,5.12389626 182.8565,4.44684187 C183.28552,3.1344961 183.838348,1.78100451 185.533602,1.78100451 L185.533602,1.78100451 Z" id="alfa" fill="#F25241"></path>
                            <path d="M140.065443,10.3521726 L152.587279,3.30103693 C152.075233,3.02452181 151.516639,2.74800668 150.958044,2.51757742 L140.065443,8.60091012 L135.224288,5.88184475 C134.898441,6.25053158 134.572594,6.66530426 134.246747,7.08007695 L140.065443,10.3521726 L140.065443,10.3521726 Z M155.194055,5.23664279 C154.821658,4.86795596 154.402712,4.54535498 153.983766,4.22275401 L140.065443,12.0573492 L133.408855,8.324395 C133.176107,8.73916768 132.943359,9.20002622 132.710611,9.66088476 L140.018894,13.7625258 L155.194055,5.23664279 L155.194055,5.23664279 Z M140.065443,15.4677023 L132.198566,11.0434604 C132.058917,11.5504048 131.919268,12.0112633 131.826169,12.5642936 L140.065443,17.1728789 L157.195686,7.58702134 C156.916389,7.17224865 156.590542,6.75747597 156.264695,6.38878914 L140.065443,15.4677023 L140.065443,15.4677023 Z M159.476616,15.0529297 C159.476616,22.5649238 153.238973,28.6482565 145.511744,28.6482565 C137.831064,28.6482565 131.546872,22.5649238 131.546872,15.0529297 C131.546872,14.7303287 131.546872,14.4538136 131.593421,14.1312126 L140.018894,18.8780555 L157.89393,8.83133939 C158.918021,10.7208594 159.476616,12.8408087 159.476616,15.0529297 L159.476616,15.0529297 Z" id="sber" fill="#299E30"></path>
                            <g id="Yandex" transform="translate(0.136766, 0.000000)">
                                <path d="M0.0196445866,13.582912 C0.0196445866,12.0529956 0.147334399,11.082087 3.32975742,8.70875513 C5.96213202,6.74732379 14.3896597,0.0490357834 14.3896597,0.0490357834 L14.3896597,11.2291944 L20.8036172,11.2291944 L20.8036172,27.3227385 L2.02339242,27.3227385 C0.923295568,27.3227385 0.0196445866,26.4204801 0.0196445866,25.3220785 L0.0196445866,13.582912 L0.0196445866,13.582912 Z" id="Shape" fill="#FFCC00"></path>
                                <g id="Group" transform="translate(2.553796, 10.003300)">
                                    <polygon id="Shape" fill="#D6AB05" points="11.8260411 1.23570174 11.8260411 7.7182323 0.0491114664 15.7306793 14.9397081 10.8859439 14.9397081 1.23570174"></polygon>
                                    <path d="M6.44342439,0.902258414 C7.13098492,0.0784572534 8.14268113,-0.20595029 8.69272955,0.254986074 C9.24277797,0.715922437 9.13473275,1.75548105 8.44717222,2.57928221 C7.75961169,3.40308337 6.74791548,3.68749091 6.19786706,3.22655455 C5.64781863,2.75581103 5.75586386,1.71625242 6.44342439,0.902258414" id="Shape" fill="#000000"></path>
                                </g>
                            </g>
                            <path d="M65.8841128,22.6270565 C65.6204674,21.4051408 65.054975,20.4858793 64.2635008,19.7912544 C63.9901704,19.5033967 63.6595376,19.299206 63.2845155,19.0829092 C63.0959283,18.9734157 62.957918,18.9064282 62.7112213,18.8133452 C62.3004187,18.6570412 61.7610218,18.4751797 61.0906092,18.5429742 C61.4266226,18.3729498 61.9267417,18.3659552 62.4411193,18.3737569 C62.8680634,18.4194913 63.2218324,18.5378627 63.5879767,18.6435899 C63.8943972,18.8101169 64.1978584,18.9793342 64.4997055,19.1504347 C65.2395267,16.9382347 64.9562425,13.9114242 64.1289878,11.9607173 C63.3283667,9.91423726 62.1656367,8.22986606 60.652635,6.89764976 C59.1646527,5.53826186 57.3775136,4.47829978 55.0154662,3.99486023 C53.8462796,3.7422449 52.3752459,3.78259878 51.3018325,4.02875749 C50.1802635,4.32387891 49.2478197,4.80920165 48.4329403,5.41235773 C47.6756323,6.08357737 46.9406536,6.77793324 46.4413415,7.70741775 C46.2613631,7.8876651 46.1838837,8.17094938 46.0359194,8.3829418 C45.9323445,8.63878544 45.8161253,8.88252291 45.699099,9.12518428 C45.5245012,9.65946973 45.3246149,10.1681977 45.2258824,10.7791556 C44.9560494,11.884045 44.9073558,13.4024272 45.0913695,14.5939429 C45.2299178,15.8726231 45.6049399,16.9150984 46.0033673,17.9349757 C46.2484499,18.4098064 46.4722795,18.9056211 46.7445337,19.3524732 C47.0033366,19.8033606 47.3237465,20.191834 47.6231723,20.6020985 C48.3032698,21.3392295 49.0336751,22.0260526 49.884066,22.5934283 C51.6085221,23.7166114 53.5874767,24.5834129 56.2976436,24.71954 C56.3509108,24.6095084 56.2244686,24.3891762 56.1964899,24.2471305 C56.155867,24.0849079 56.1399945,23.8984729 56.0945291,23.7413618 C56.0563274,23.3776388 56.0444903,22.953654 56.0945291,22.5934283 C56.2021394,22.621407 56.1989111,22.7594173 56.2640154,22.829633 C56.321587,22.8958134 56.343109,22.9980432 56.4329637,23.0319405 C56.5007582,23.2224108 56.6481844,23.3337876 56.7364249,23.504888 C56.9911924,23.7677264 57.1897336,24.0865221 57.5131027,24.2807588 C57.7702915,24.5419829 58.1141066,24.7146976 58.4242934,24.9226546 C58.7586926,25.0945621 59.0452052,25.3143563 59.437176,25.4284233 C60.1075885,25.7813853 61.0066731,25.9059443 61.9011843,26.0361528 C62.8026901,26.1582906 63.6724508,26.3121734 64.4997055,26.5088313 C65.2618559,26.7705935 66.0385337,27.0172903 66.6605216,27.419484 C66.9884642,27.6094163 67.3121023,27.803384 67.6050716,28.0280206 C67.7484624,28.1426257 67.9295168,28.2206432 68.0438528,28.3648411 C68.2214099,28.4355949 68.2996964,28.6045431 68.4826341,28.6683023 C69.0066965,29.1684214 69.5243024,29.6749972 69.9690022,30.2550171 C70.1519398,30.5891473 70.4021339,30.856021 70.5425654,31.2342714 C70.6655103,31.3695914 70.7015597,31.5920758 70.8123984,31.7400401 C70.8193931,31.9318556 71.005021,32.1621417 70.8457576,32.3141414 C70.5950255,32.351267 70.6458714,32.0862764 70.5425654,31.9765139 C70.4610506,31.8444221 70.3598968,31.7303552 70.3050156,31.5718989 C69.9100855,31.157061 69.5565855,30.700793 69.1239918,30.3233497 C68.6962406,29.9523629 68.2757531,29.5730364 67.7740198,29.2768389 C66.831084,28.6101927 65.7383008,28.0950081 64.4658082,27.7573806 C63.2129546,27.3947336 61.8081013,27.2491906 60.1794185,27.3527656 C59.4643476,27.4463866 58.7818289,27.5760571 58.1875506,27.7907398 C57.5480761,27.9497341 56.8359645,28.0368985 56.1286954,28.1283673 C53.3660683,28.2986607 50.2894881,27.6392782 48.2298257,26.6438823 C47.1308549,26.1348853 46.1195865,25.5365717 45.2600487,24.7876036 C44.7903295,24.4475548 44.4064295,24.0206107 44.0112305,23.6060418 C43.6499287,23.1683366 43.2697951,22.7489252 42.9983479,22.2219035 C42.6375842,21.7726302 42.4239776,21.1753927 42.1205164,20.669355 C41.9233204,20.0683511 41.6438025,19.5485931 41.5130559,18.8806017 C41.306713,18.2771766 41.1800018,17.5933128 41.1084409,16.8548366 C41.0966038,16.6519911 41.005673,16.2605584 41.0064801,15.9436459 C41.0064801,15.9153982 41.0430676,15.8901097 41.0406464,15.8424922 C41.0255809,15.5543654 40.9572484,15.1110107 41.0406464,14.8635069 C41.0255809,14.1949775 41.1458355,13.3720272 41.2773892,12.7371261 C41.3981818,12.0597189 41.5784292,11.4404212 41.783965,10.846412 C41.9846583,10.2381445 42.2504559,9.69363602 42.4917721,9.12518428 C42.6542638,8.88252291 42.7777467,8.60112181 42.9305534,8.34931356 C43.0596858,8.08405402 43.2531155,7.88443679 43.3701417,7.606264 C43.5000812,7.53335798 43.5232175,7.35445576 43.6394367,7.26890552 C43.6918967,7.11852003 43.8320592,7.055837 43.8759104,6.89764976 C43.9864801,6.80537388 44.0744515,6.69076884 44.1460124,6.55975323 C44.2487803,6.45994461 44.3563907,6.36497847 44.4158454,6.22212571 C44.8180392,5.82558152 45.1779958,5.38626222 45.5971382,5.00720471 C46.0152044,4.61496494 46.4825024,4.27249496 46.914289,3.89370648 C47.1881574,3.76269087 47.3858914,3.55527189 47.6565315,3.42075894 C47.8620673,3.23297886 48.1614931,3.13774368 48.3654148,2.94808042 C48.928486,2.70084561 49.4078902,2.37021277 50.019386,2.17140263 C50.5466768,1.89995549 51.1783497,1.73262137 51.7747801,1.53058291 C53.0706779,1.19833592 54.3781438,0.969394872 55.9936444,1.02427616 C56.0514849,1.0310018 56.0810778,0.966435587 56.0945291,1.02427616 C59.1533536,1.11628302 61.3827713,2.03769675 63.2845155,3.28570793 C65.169042,4.54044477 66.6279695,6.22051156 67.6725971,8.3154163 C68.6946265,10.3901441 69.2695348,13.2095356 68.7869024,16.1801197 C68.5450481,17.5139501 68.1544225,18.6979331 67.6725971,19.7912544 C67.3965765,20.3037488 67.1504178,20.8447599 66.8286628,21.3104437 C66.6876932,21.562252 66.5365006,21.8057204 66.3562533,22.019596 C66.2957225,22.1495355 66.2099032,22.2552627 66.1205866,22.3569545 C66.0807708,22.4188305 66.031539,22.4707525 65.9852666,22.5259028 C65.9699321,22.5557646 65.9559427,22.5864336 65.917472,22.5934283 C65.927157,22.6536901 65.8865341,22.6625679 65.8841128,22.6270565" id="Fill-1" fill="#FA8B28"></path>
                            <g id="WebMoney" transform="translate(86.000000, 1.000000)" fill="#0068A3">
                                <path d="M13.97844,0.06776 C16.15712,0.06776 18.22044,0.57512 20.05808,1.47588 C20.34676,1.6128 20.6346,1.76344 20.92328,1.92976 L19.64592,3.073 L17.7268,1.08864 L14.48776,3.97768 L12.56388,1.87796 L6.53016,7.31668 L10.39836,11.57968 L8.87824,12.91668 L12.6882,17.18612 L11.17704,18.52004 L16.62136,24.58008 L19.85312,21.6048 L22.64724,24.79316 C22.09144,25.2252 21.48608,25.63176 20.81912,26.00752 C18.79864,27.15972 16.46344,27.8194 13.97844,27.8194 C6.33612,27.8194 0.10304,21.58548 0.10304,13.944 C0.10304,6.30084 6.33612,0.06776 13.97844,0.06776" id="Fill-1"></path>
                                <polyline id="Fill-2" points="11.44976 13.06676 14.74928 10.0954 17.72036 13.39576 14.42112 16.366 11.44976 13.06676"></polyline>
                                <polyline id="Fill-3" points="13.79588 18.76812 17.09568 15.7976 20.06704 19.09712 16.76752 22.06848 13.79588 18.76812"></polyline>
                                <polyline id="Fill-4" points="9.0888 7.43204 12.38832 4.46152 15.35856 7.76104 12.05904 10.73156 9.0888 7.43204"></polyline>
                                <polyline id="Fill-5" points="15.14352 5.83296 17.61816 3.60528 19.84612 6.07992 17.37148 8.30844 15.14352 5.83296"></polyline>
                                <polyline id="Fill-6" points="19.54036 16.03868 22.01584 13.81016 24.2438 16.28536 21.76916 18.51332 19.54036 16.03868"></polyline>
                                <polyline id="Fill-7" points="21.71736 21.03724 24.19144 18.80844 26.41996 21.28308 23.94532 23.51104 21.71736 21.03724"></polyline>
                                <polyline id="Fill-8" points="22.71416 9.58104 24.36392 8.09564 25.84904 9.7454 24.20012 11.23052 22.71416 9.58104"></polyline>
                                <polyline id="Fill-9" points="20.60632 4.67908 22.25608 3.19396 23.74148 4.84372 22.09144 6.32884 20.60632 4.67908"></polyline>
                                <polyline id="Fill-10" points="24.8234 14.48272 26.47316 12.99732 27.95856 14.6468 26.3088 16.1322 24.8234 14.48272"></polyline>
                                <polyline id="Fill-11" points="17.42468 10.80968 19.89904 8.58088 22.127 11.05552 19.6532 13.28348 17.42468 10.80968"></polyline>
                            </g>
                            <g id="Promsvyazbank_Logo" transform="translate(211.000000, 0.000000)">
                                <g id="svg2">
                                    <g id="g10" transform="translate(13.999998, 14.500001) scale(1, -1) translate(-13.999998, -14.500001) translate(-0.000002, 0.000001)">
                                        <g id="g12" transform="translate(0.000000, 0.201802)">
                                            <path d="M27.6394507,20.7260532 C27.6394507,24.3615125 24.6527841,27.3073143 20.9680353,27.3073143 L11.5426474,27.3073143 C8.50125938,27.3073143 5.9073599,25.2857648 5.12029143,22.4908099 L16.5130948,22.4908099 C20.8959257,22.4908099 22.755944,20.479855 22.755944,15.7602154 L22.755944,5.09347697 C25.5825375,5.86990938 27.6394507,8.43783725 27.6394507,11.4265219 L27.6394507,20.7260532" id="path162" fill="#2647A3"></path>
                                            <path d="M0.218885158,6.85823368 C0.218885158,3.22226981 3.20657458,0.276972588 6.89132335,0.276972588 L16.3161998,0.276972588 C19.3580993,0.276972588 21.9509759,2.29801758 22.7380444,5.09347697 L11.345241,5.09347697 C6.96292152,5.09347697 5.10239189,7.10443188 5.10239189,11.8245759 L5.10239189,22.4908099 C2.27528693,21.7133684 0.218885158,19.1459451 0.218885158,16.1572605 L0.218885158,6.85823368" id="path164" fill="#F1511B"></path>
                                            <path d="M19.3090034,16.9130082 L19.3090034,16.9412605 C19.8372956,17.1062334 20.5425376,17.5406118 20.5425376,18.681801 C20.5425376,19.9657649 19.4849303,20.5550261 17.9961998,20.5550261 L15.4692957,20.5550261 L15.4692957,17.4825938 L13.9820994,17.4825938 C11.9845104,17.4825938 11.5728209,16.099747 11.5728209,15.3470263 C11.5728209,14.2759632 12.1998164,13.8012245 13.3556154,13.2326479 C14.0608574,12.8855488 14.9011131,12.6731525 14.9011131,11.8795669 C14.9011131,11.4628462 14.5114145,10.9603597 13.6696245,10.9603597 L12.102136,10.9603597 C12.3368757,11.3574047 12.4345561,11.7917831 12.4345561,12.1691525 C12.4345561,12.6610444 12.2591406,14.6326479 9.47704018,14.6326479 L7.20482106,14.6326479 L7.20482106,7.03077422 L8.75185298,7.03077422 L8.75185298,10.3433507 L9.37935982,9.72482821 L13.6103003,9.72482821 C15.5864099,9.72482821 16.526903,10.7287921 16.526903,11.9269903 C16.526903,12.3517831 16.448145,12.6928281 16.3115971,12.9703056 L17.8985194,12.9703056 C20.3466655,12.9703056 20.9148481,14.1685038 20.9148481,15.1068821 C20.9148481,16.0614046 20.2878527,16.7682154 19.3090034,16.9130082 L19.3090034,16.9130082 Z M9.47704018,10.9603597 L8.75185298,10.9603597 L8.75185298,13.4455488 L9.47704018,13.4455488 C10.3781543,13.4455488 10.7898438,12.9052245 10.7898438,12.2483597 C10.7898438,11.6374047 10.4170219,10.9603597 9.47704018,10.9603597 L9.47704018,10.9603597 Z M15.4692957,15.6754587 L15.4692957,13.8314948 C15.0969852,14.0524677 14.668419,14.2270263 14.217862,14.419747 C13.7274145,14.6326479 13.1991223,14.9035668 13.1991223,15.5135127 C13.1991223,15.8232785 13.394483,16.2843956 14.3344647,16.2843956 L16.0768574,16.2843956 L15.4692957,15.6754587 L15.4692957,15.6754587 Z M17.0163277,19.3654045 L17.7215697,19.3654045 C18.9162363,19.3654045 18.9755605,18.6424496 18.9755605,18.4204676 C18.9755605,18.0925397 18.7996336,17.4825938 17.7808939,17.4825938 L17.0163277,17.4825938 L17.0163277,19.3654045 L17.0163277,19.3654045 Z M17.8985194,14.1685038 L17.0163277,14.1685038 L17.0163277,16.2843956 L17.8985194,16.2843956 C18.9755605,16.2843956 19.269113,15.771819 19.269113,15.2309902 C19.269113,14.6901614 18.8783915,14.1685038 17.8985194,14.1685038 L17.8985194,14.1685038 Z" id="path166" fill="#2647A3"></path>
                                        </g>
                                    </g>
                                </g>
                            </g>
                        </g>
                    </g>
                </g>
            </g>
        </g>
    </g>
</svg>